<svg width="30" height="30" viewBox="0 0 30 30" fill="none" xmlns="http://www.w3.org/2000/svg">
    <path d="M18.5 22H12c-.5 2 .338 5.5 3.5 5.5 3 0 3.333-4 3-5.5zM5.526 17.912C5.947 16.676 6.974 16.343 7.5 16L7 9c.776-1.264.395-2.941 2.5-5 7-4.5 12.5.5 12.5 6v5.5c2 1.5 3 3.956 3 5.5H5c0-.343.105-1.853.526-3.088z" fill="#FEF652"/>
    <path d="M16 5c1.5 0 3.5 2.5 3.5 4" stroke="#2A292D" stroke-width=".5"/>
    <path d="m7 16.188.307.395.193-.15v-.245H7zM5.001 21l-.5.005.005.495h.495V21zm19.998 0v.5h.495l.005-.495L25 21zM22 15.5h-.5v.279l.236.146.264-.424zm-14.5-6a7 7 0 0 1 7-7v-1a8 8 0 0 0-8 8h1zm0 6.688V9.5h-1v6.688h1zm-.807-.395c-.866.673-1.438 1.37-1.778 2.232-.334.848-.426 1.812-.414 2.98l1-.01c-.012-1.125.08-1.935.344-2.603.259-.655.699-1.217 1.462-1.809l-.614-.79zM5.001 21.5H7v-1H5.001v1zM7 21.5h1.001v-1H7v1zm15-1H8v1h13.998v-1zm0 0v1-1zm3 0h-3v1h3v-1zm-3.264-4.575c1.205.749 1.876 1.39 2.26 2.12.385.734.517 1.623.503 2.95l1 .01c.015-1.378-.116-2.47-.618-3.425-.504-.959-1.347-1.716-2.617-2.504l-.528.85zM21.5 9.5v6h1v-6h-1zm-7-7a7 7 0 0 1 7 7h1a8 8 0 0 0-8-8v1z" fill="#2A292D"/>
    <path d="M18.5 24a3.5 3.5 0 1 1-6.663-1.5h6.326c.216.454.337.962.337 1.5z" stroke="#2A292D"/>
    <path d="M7 21h3" stroke="#fff"/>
</svg>
